# xmcd
#
# Track frame offsets: 
#        150
#        12556
#        31383
#        44499
#        61539
#        76442
#        89376
#        109937
#        128827
#        140596
#        157906
#        175385
#        193071
#        211948
#        234270
#        245018
#        261487
#        274125
#        287461
#        300926
#
# Disc length: 4273 seconds
#
# Revision: 4
# Processed by: cddbd v1.5.2PL0 Copyright (c) Steve Scherf et al.
# Submitted via: ExactAudioCopyFreeDBPlugin 1.0
#
DISCID=1810af14
DTITLE=Emmylou Harris - 2000 - Singin' With Emmylou [Cd1]
DYEAR=2000
DGENRE=Country
TTITLE0=Angel Eyes (Angel Eyes) - with Willie Nelson
TTITLE1=Only The Heart May Know - with Dan Fogelberg
TTITLE2=That's All It Took (Live) - with Fallen Angels
TTITLE3=What Could Have Been - with Kathy Mattea
TTITLE4=Oh Carolina - with Vince Gill
TTITLE5=Here We Are - with George Jones
TTITLE6=Woman Walk The Line - with Trisha Yearwood
TTITLE7=Walk Through The Bottomland - with Lyle Lovett
TTITLE8=You Are - with Glen Campbell
TTITLE9=Spanish Johnny - with Waylon Jennings
TTITLE10=Mexican Wind - with Jann Browne
TTITLE11=Anyhow, I Love You - with Guy Clark
TTITLE12=Just Like You - with Jon Randall
TTITLE13=Nobody's - with David Bromberg Band
TTITLE14=Just Can't Believe It - with Pure Prairie League
TTITLE15=Rachel - with Gary Stewart
TTITLE16=Our Baby's Gone - with Herb Pedersen
TTITLE17=Hometown Blues - with Rosanne Cash
TTITLE18=Streets Of This Town (Ode To Fernwood) - with Mary Kay Place
TTITLE19=Fourteen Days - with Steve Goodman
EXTD=
EXTT0=
EXTT1=
EXTT2=
EXTT3=
EXTT4=
EXTT5=
EXTT6=
EXTT7=
EXTT8=
EXTT9=
EXTT10=
EXTT11=
EXTT12=
EXTT13=
EXTT14=
EXTT15=
EXTT16=
EXTT17=
EXTT18=
EXTT19=
PLAYORDER=
